<?xml version="1.0" standalone="no"?><!DOCTYPE svg PUBLIC "-//W3C//DTD SVG 1.1//EN" "http://www.w3.org/Graphics/SVG/1.1/DTD/svg11.dtd"><svg t="1734080086602" class="icon" viewBox="0 0 1024 1024" version="1.1" xmlns="http://www.w3.org/2000/svg" p-id="5353" xmlns:xlink="http://www.w3.org/1999/xlink" width="32" height="32"><path d="M512 25.6C243.2 25.6 25.6 243.2 25.6 512s217.6 486.4 486.4 486.4 486.4-217.6 486.4-486.4S780.8 25.6 512 25.6z m238.08 332.8l-79.36 376.32c-5.12 25.6-23.04 33.28-43.52 20.48L504.32 665.6l-58.88 56.32c-7.68 7.68-12.8 12.8-25.6 12.8l7.68-122.88 225.28-204.8c10.24-7.68-2.56-12.8-15.36-5.12L358.4 576 238.08 537.6c-25.6-7.68-25.6-25.6 5.12-38.4l473.6-179.2c23.04-7.68 40.96 5.12 33.28 38.4z m0 0" fill="#33A0CF" p-id="5354"></path></svg>